<mxfile host="app.diagrams.net" modified="2021-03-16T03:52:37.094Z" agent="5.0 (Macintosh; Intel Mac OS X 10_14_5) AppleWebKit/537.36 (KHTML, like Gecko) Chrome/89.0.4389.82 Safari/537.36" etag="WVXZ7YoKtjZqhhYP2XJF" version="14.4.8" type="github">
  <diagram id="6a731a19-8d31-9384-78a2-239565b7b9f0" name="Page-1">
    <mxGraphModel dx="652" dy="355" grid="1" gridSize="10" guides="1" tooltips="1" connect="1" arrows="1" fold="1" page="1" pageScale="1" pageWidth="1169" pageHeight="827" background="#ffffff" math="0" shadow="0">
      <root>
        <mxCell id="0" />
        <mxCell id="1" parent="0" />
        <mxCell id="1351" value="&lt;font style=&quot;font-size: 26px&quot;&gt;RaftRequest&lt;/font&gt;" style="ellipse;whiteSpace=wrap;html=1;shadow=0;fontFamily=Helvetica;fontSize=14;fontColor=#FFFFFF;align=center;strokeWidth=3;fillColor=#F08705;strokeColor=none;gradientColor=none;" parent="1" vertex="1">
          <mxGeometry x="999.87" y="421.5" width="192.25" height="122.02" as="geometry" />
        </mxCell>
        <mxCell id="1353" value="&lt;font style=&quot;font-size: 26px&quot;&gt;Write&lt;/font&gt;" style="ellipse;whiteSpace=wrap;html=1;shadow=0;fontFamily=Helvetica;fontSize=14;fontColor=#FFFFFF;align=center;strokeWidth=3;fillColor=#1699D3;strokeColor=none;" parent="1" vertex="1">
          <mxGeometry x="1400" y="750.49" width="192.25" height="122.02" as="geometry" />
        </mxCell>
        <mxCell id="1356" value="&lt;font style=&quot;font-size: 26px&quot;&gt;RaftResponse&lt;/font&gt;" style="ellipse;whiteSpace=wrap;html=1;shadow=0;fontFamily=Helvetica;fontSize=14;fontColor=#FFFFFF;align=center;strokeWidth=3;fillColor=#E85642;strokeColor=none;" parent="1" vertex="1">
          <mxGeometry x="997.38" y="1138.51" width="192.25" height="122.02" as="geometry" />
        </mxCell>
        <mxCell id="1357" value="Ant" style="rounded=1;fillColor=#f5af58;strokeColor=none;strokeWidth=3;shadow=0;html=1;fontColor=#FFFFFF;fontSize=14;" parent="1" vertex="1">
          <mxGeometry x="903.5" y="591.5" width="120" height="40" as="geometry" />
        </mxCell>
        <mxCell id="1360" style="endArrow=none;strokeWidth=6;strokeColor=#f08705;html=1;fontSize=14;" parent="1" source="1515" target="1351" edge="1">
          <mxGeometry relative="1" as="geometry" />
        </mxCell>
        <mxCell id="1362" style="endArrow=none;strokeWidth=6;strokeColor=#1699D3;html=1;fontSize=14;" parent="1" source="1515" target="1353" edge="1">
          <mxGeometry relative="1" as="geometry" />
        </mxCell>
        <mxCell id="1363" style="endArrow=none;strokeWidth=6;strokeColor=#736CA8;html=1;fontSize=14;" parent="1" source="1515" target="1516" edge="1">
          <mxGeometry relative="1" as="geometry" />
        </mxCell>
        <mxCell id="1366" value="" style="edgeStyle=none;endArrow=none;strokeWidth=6;strokeColor=#E85642;html=1;fontSize=14;" parent="1" target="1356" edge="1">
          <mxGeometry x="181" y="205.01" width="100" height="100" as="geometry">
            <mxPoint x="1094.726471763166" y="925.0039931044937" as="sourcePoint" />
            <mxPoint x="281" y="205.01" as="targetPoint" />
          </mxGeometry>
        </mxCell>
        <mxCell id="1388" value="Bee" style="rounded=1;fillColor=#f5af58;strokeColor=none;strokeWidth=3;shadow=0;html=1;fontColor=#FFFFFF;fontSize=14;" parent="1" vertex="1">
          <mxGeometry x="843.5" y="521.5" width="120" height="40" as="geometry" />
        </mxCell>
        <mxCell id="1389" value="Hornet" style="rounded=1;fillColor=#f5af58;strokeColor=none;strokeWidth=3;shadow=0;html=1;fontColor=#FFFFFF;fontSize=14;" parent="1" vertex="1">
          <mxGeometry x="833.5" y="451.5" width="120" height="40" as="geometry" />
        </mxCell>
        <mxCell id="1390" value="Fly" style="rounded=1;fillColor=#f5af58;strokeColor=none;strokeWidth=3;shadow=0;html=1;fontColor=#FFFFFF;fontSize=14;" parent="1" vertex="1">
          <mxGeometry x="853.5" y="381.5" width="120" height="40" as="geometry" />
        </mxCell>
        <mxCell id="1395" value="ContainerCommandRequestProto" style="rounded=1;fillColor=#f5af58;strokeColor=none;strokeWidth=3;shadow=0;html=1;fontColor=#FFFFFF;fontSize=14;" parent="1" vertex="1">
          <mxGeometry x="1213.5" y="381.5" width="120" height="40" as="geometry" />
        </mxCell>
        <mxCell id="1396" value="RaftClientProtocolServiceClient" style="rounded=1;fillColor=#f5af58;strokeColor=none;strokeWidth=3;shadow=0;html=1;fontColor=#FFFFFF;fontSize=14;" parent="1" vertex="1">
          <mxGeometry x="1228.5" y="450" width="261.5" height="41.5" as="geometry" />
        </mxCell>
        <mxCell id="1397" value="XceiverClientProtocolServiceClient" style="rounded=1;fillColor=#f5af58;strokeColor=none;strokeWidth=3;shadow=0;html=1;fontColor=#FFFFFF;fontSize=14;" parent="1" vertex="1">
          <mxGeometry x="1228.5" y="511.5" width="286.5" height="40" as="geometry" />
        </mxCell>
        <mxCell id="1398" value="Bumblebee" style="rounded=1;fillColor=#f5af58;strokeColor=none;strokeWidth=3;shadow=0;html=1;fontColor=#FFFFFF;fontSize=14;" parent="1" vertex="1">
          <mxGeometry x="1168.5" y="581.5" width="120" height="40" as="geometry" />
        </mxCell>
        <mxCell id="1399" value="" style="edgeStyle=none;endArrow=none;strokeWidth=3;strokeColor=#F5AF58;html=1;fontSize=14;" parent="1" source="1351" target="1357" edge="1">
          <mxGeometry x="-66.5" y="201.5" width="100" height="100" as="geometry">
            <mxPoint x="-66.5" y="301.5" as="sourcePoint" />
            <mxPoint x="33.5" y="201.5" as="targetPoint" />
          </mxGeometry>
        </mxCell>
        <mxCell id="1400" value="" style="edgeStyle=none;endArrow=none;strokeWidth=3;strokeColor=#F5AF58;html=1;fontSize=14;" parent="1" source="1351" target="1388" edge="1">
          <mxGeometry x="-66.5" y="201.5" width="100" height="100" as="geometry">
            <mxPoint x="-66.5" y="301.5" as="sourcePoint" />
            <mxPoint x="33.5" y="201.5" as="targetPoint" />
          </mxGeometry>
        </mxCell>
        <mxCell id="1401" value="" style="edgeStyle=none;endArrow=none;strokeWidth=3;strokeColor=#F5AF58;html=1;fontSize=14;" parent="1" source="1351" target="1389" edge="1">
          <mxGeometry x="-66.5" y="201.5" width="100" height="100" as="geometry">
            <mxPoint x="-66.5" y="301.5" as="sourcePoint" />
            <mxPoint x="33.5" y="201.5" as="targetPoint" />
          </mxGeometry>
        </mxCell>
        <mxCell id="1402" value="" style="edgeStyle=none;endArrow=none;strokeWidth=3;strokeColor=#F5AF58;html=1;fontSize=14;" parent="1" source="1351" target="1390" edge="1">
          <mxGeometry x="-66.5" y="201.5" width="100" height="100" as="geometry">
            <mxPoint x="-66.5" y="301.5" as="sourcePoint" />
            <mxPoint x="33.5" y="201.5" as="targetPoint" />
          </mxGeometry>
        </mxCell>
        <mxCell id="1403" value="" style="edgeStyle=none;endArrow=none;strokeWidth=3;strokeColor=#F5AF58;html=1;fontSize=14;" parent="1" source="1351" edge="1">
          <mxGeometry x="-66.5" y="201.5" width="100" height="100" as="geometry">
            <mxPoint x="-66.5" y="301.5" as="sourcePoint" />
            <mxPoint x="973.7106233600457" y="361.5" as="targetPoint" />
          </mxGeometry>
        </mxCell>
        <mxCell id="1404" value="" style="edgeStyle=none;endArrow=none;strokeWidth=3;strokeColor=#F5AF58;html=1;fontSize=14;" parent="1" source="1351" edge="1">
          <mxGeometry x="-66.5" y="201.5" width="100" height="100" as="geometry">
            <mxPoint x="-66.5" y="301.5" as="sourcePoint" />
            <mxPoint x="1030.7130739764193" y="301.5" as="targetPoint" />
          </mxGeometry>
        </mxCell>
        <mxCell id="1405" value="" style="edgeStyle=none;endArrow=none;strokeWidth=3;strokeColor=#F5AF58;html=1;fontSize=14;" parent="1" source="1351" edge="1">
          <mxGeometry x="-66.5" y="201.5" width="100" height="100" as="geometry">
            <mxPoint x="-66.5" y="301.5" as="sourcePoint" />
            <mxPoint x="1147.778394109746" y="301.5" as="targetPoint" />
          </mxGeometry>
        </mxCell>
        <mxCell id="1406" value="" style="edgeStyle=none;endArrow=none;strokeWidth=3;strokeColor=#F5AF58;html=1;fontSize=14;" parent="1" source="1351" edge="1">
          <mxGeometry x="-66.5" y="201.5" width="100" height="100" as="geometry">
            <mxPoint x="-66.5" y="301.5" as="sourcePoint" />
            <mxPoint x="1205.4154669881568" y="361.5" as="targetPoint" />
          </mxGeometry>
        </mxCell>
        <mxCell id="1407" value="" style="edgeStyle=none;endArrow=none;strokeWidth=3;strokeColor=#F5AF58;html=1;fontSize=14;" parent="1" source="1351" target="1395" edge="1">
          <mxGeometry x="-66.5" y="201.5" width="100" height="100" as="geometry">
            <mxPoint x="-66.5" y="301.5" as="sourcePoint" />
            <mxPoint x="33.5" y="201.5" as="targetPoint" />
          </mxGeometry>
        </mxCell>
        <mxCell id="1408" value="" style="edgeStyle=none;endArrow=none;strokeWidth=3;strokeColor=#F5AF58;html=1;fontSize=14;" parent="1" source="1351" target="1396" edge="1">
          <mxGeometry x="-66.5" y="201.5" width="100" height="100" as="geometry">
            <mxPoint x="-66.5" y="301.5" as="sourcePoint" />
            <mxPoint x="33.5" y="201.5" as="targetPoint" />
          </mxGeometry>
        </mxCell>
        <mxCell id="1409" value="" style="edgeStyle=none;endArrow=none;strokeWidth=3;strokeColor=#F5AF58;html=1;fontSize=14;" parent="1" source="1351" target="1397" edge="1">
          <mxGeometry x="-66.5" y="201.5" width="100" height="100" as="geometry">
            <mxPoint x="-66.5" y="301.5" as="sourcePoint" />
            <mxPoint x="33.5" y="201.5" as="targetPoint" />
          </mxGeometry>
        </mxCell>
        <mxCell id="1410" value="" style="edgeStyle=none;endArrow=none;strokeWidth=3;strokeColor=#F5AF58;html=1;fontSize=14;" parent="1" source="1351" target="1398" edge="1">
          <mxGeometry x="-66.5" y="201.5" width="100" height="100" as="geometry">
            <mxPoint x="-66.5" y="301.5" as="sourcePoint" />
            <mxPoint x="33.5" y="201.5" as="targetPoint" />
          </mxGeometry>
        </mxCell>
        <mxCell id="1435" value="WatchRequestTypeProto" style="rounded=1;fillColor=#64BBE2;strokeColor=none;strokeWidth=3;shadow=0;html=1;fontColor=#FFFFFF;fontSize=14;" parent="1" vertex="1">
          <mxGeometry x="1320" y="900" width="168.5" height="40" as="geometry" />
        </mxCell>
        <mxCell id="1436" value="BlockData" style="rounded=1;fillColor=#64BBE2;strokeColor=none;strokeWidth=3;shadow=0;html=1;fontColor=#FFFFFF;fontSize=14;" parent="1" vertex="1">
          <mxGeometry x="1280" y="730" width="120" height="40" as="geometry" />
        </mxCell>
        <mxCell id="1437" value="PutBlockRequestProto" style="rounded=1;fillColor=#64BBE2;strokeColor=none;strokeWidth=3;shadow=0;html=1;fontColor=#FFFFFF;fontSize=14;" parent="1" vertex="1">
          <mxGeometry x="1400" y="650" width="150" height="40" as="geometry" />
        </mxCell>
        <mxCell id="1439" value="ChunkInfo" style="rounded=1;fillColor=#64BBE2;strokeColor=none;strokeWidth=3;shadow=0;html=1;fontColor=#FFFFFF;fontSize=14;" parent="1" vertex="1">
          <mxGeometry x="1608.5" y="660" width="120" height="40" as="geometry" />
        </mxCell>
        <mxCell id="1440" value="WriteChunkRequestProto" style="rounded=1;fillColor=#64BBE2;strokeColor=none;strokeWidth=3;shadow=0;html=1;fontColor=#FFFFFF;fontSize=14;" parent="1" vertex="1">
          <mxGeometry x="1620" y="780" width="178.5" height="40" as="geometry" />
        </mxCell>
        <mxCell id="1446" value="" style="edgeStyle=none;endArrow=none;strokeWidth=3;strokeColor=#64BBE2;html=1;fontSize=14;" parent="1" source="1353" target="1435" edge="1">
          <mxGeometry x="-516.5" y="150" width="100" height="100" as="geometry">
            <mxPoint x="-516.5" y="250" as="sourcePoint" />
            <mxPoint x="-416.5" y="150" as="targetPoint" />
          </mxGeometry>
        </mxCell>
        <mxCell id="1448" value="" style="edgeStyle=none;endArrow=none;strokeWidth=3;strokeColor=#64BBE2;html=1;fontSize=14;" parent="1" source="1353" target="1437" edge="1">
          <mxGeometry x="-516.5" y="150" width="100" height="100" as="geometry">
            <mxPoint x="-516.5" y="250" as="sourcePoint" />
            <mxPoint x="-416.5" y="150" as="targetPoint" />
          </mxGeometry>
        </mxCell>
        <mxCell id="1450" value="" style="edgeStyle=none;endArrow=none;strokeWidth=3;strokeColor=#64BBE2;html=1;fontSize=14;" parent="1" source="1353" target="1439" edge="1">
          <mxGeometry x="-516.5" y="150" width="100" height="100" as="geometry">
            <mxPoint x="-516.5" y="250" as="sourcePoint" />
            <mxPoint x="-416.5" y="150" as="targetPoint" />
          </mxGeometry>
        </mxCell>
        <mxCell id="1451" value="" style="edgeStyle=none;endArrow=none;strokeWidth=3;strokeColor=#64BBE2;html=1;fontSize=14;" parent="1" source="1353" target="1440" edge="1">
          <mxGeometry x="-516.5" y="150" width="100" height="100" as="geometry">
            <mxPoint x="-516.5" y="250" as="sourcePoint" />
            <mxPoint x="-416.5" y="150" as="targetPoint" />
          </mxGeometry>
        </mxCell>
        <mxCell id="1453" value="" style="edgeStyle=none;endArrow=none;strokeWidth=3;strokeColor=#64BBE2;html=1;fontSize=14;" parent="1" source="1353" edge="1">
          <mxGeometry x="-516.5" y="150" width="100" height="100" as="geometry">
            <mxPoint x="-516.5" y="250" as="sourcePoint" />
            <mxPoint x="1662.10520878007" y="919.9999999999998" as="targetPoint" />
          </mxGeometry>
        </mxCell>
        <mxCell id="1455" value="" style="edgeStyle=none;endArrow=none;strokeWidth=3;strokeColor=#64BBE2;html=1;fontSize=14;entryX=1;entryY=0.5;entryDx=0;entryDy=0;" parent="1" source="1353" target="1436" edge="1">
          <mxGeometry x="-516.5" y="150" width="100" height="100" as="geometry">
            <mxPoint x="-516.5" y="250" as="sourcePoint" />
            <mxPoint x="1439.6951879572075" y="909.9999999999998" as="targetPoint" />
          </mxGeometry>
        </mxCell>
        <mxCell id="1490" value="Philadendron" style="rounded=1;fillColor=#f08e81;strokeColor=none;strokeWidth=3;shadow=0;html=1;fontColor=#FFFFFF;fontSize=14;" parent="1" vertex="1">
          <mxGeometry x="1163.5" y="1023.51" width="120" height="40" as="geometry" />
        </mxCell>
        <mxCell id="1491" value="Dahlia" style="rounded=1;fillColor=#f08e81;strokeColor=none;strokeWidth=3;shadow=0;html=1;fontColor=#FFFFFF;fontSize=14;" parent="1" vertex="1">
          <mxGeometry x="958.5" y="983.51" width="120" height="40" as="geometry" />
        </mxCell>
        <mxCell id="1492" value="Petunia" style="rounded=1;fillColor=#f08e81;strokeColor=none;strokeWidth=3;shadow=0;html=1;fontColor=#FFFFFF;fontSize=14;" parent="1" vertex="1">
          <mxGeometry x="893.5" y="1038.51" width="120" height="40" as="geometry" />
        </mxCell>
        <mxCell id="1493" value="Cactus" style="rounded=1;fillColor=#f08e81;strokeColor=none;strokeWidth=3;shadow=0;html=1;fontColor=#FFFFFF;fontSize=14;" parent="1" vertex="1">
          <mxGeometry x="838.5" y="1098.51" width="120" height="40" as="geometry" />
        </mxCell>
        <mxCell id="1494" value="Tulip" style="rounded=1;fillColor=#f08e81;strokeColor=none;strokeWidth=3;shadow=0;html=1;fontColor=#FFFFFF;fontSize=14;" parent="1" vertex="1">
          <mxGeometry x="818.5" y="1175" width="120" height="40" as="geometry" />
        </mxCell>
        <mxCell id="1495" value="Lilac" style="rounded=1;fillColor=#f08e81;strokeColor=none;strokeWidth=3;shadow=0;html=1;fontColor=#FFFFFF;fontSize=14;" parent="1" vertex="1">
          <mxGeometry x="833.5" y="1218.51" width="120" height="40" as="geometry" />
        </mxCell>
        <mxCell id="1496" value="Dandelion" style="rounded=1;fillColor=#f08e81;strokeColor=none;strokeWidth=3;shadow=0;html=1;fontColor=#FFFFFF;fontSize=14;" parent="1" vertex="1">
          <mxGeometry x="868.5" y="1281.01" width="120" height="40" as="geometry" />
        </mxCell>
        <mxCell id="1497" value="Poppy" style="rounded=1;fillColor=#f08e81;strokeColor=none;strokeWidth=3;shadow=0;html=1;fontColor=#FFFFFF;fontSize=14;" parent="1" vertex="1">
          <mxGeometry x="938.5" y="1331.01" width="120" height="40" as="geometry" />
        </mxCell>
        <mxCell id="1498" value="Gerbera" style="rounded=1;fillColor=#f08e81;strokeColor=none;strokeWidth=3;shadow=0;html=1;fontColor=#FFFFFF;fontSize=14;" parent="1" vertex="1">
          <mxGeometry x="1048.5" y="1386.01" width="120" height="40" as="geometry" />
        </mxCell>
        <mxCell id="1499" value="Orchid" style="rounded=1;fillColor=#f08e81;strokeColor=none;strokeWidth=3;shadow=0;html=1;fontColor=#FFFFFF;fontSize=14;" parent="1" vertex="1">
          <mxGeometry x="1173.5" y="1321.01" width="120" height="40" as="geometry" />
        </mxCell>
        <mxCell id="1500" value="Gladiola" style="rounded=1;fillColor=#f08e81;strokeColor=none;strokeWidth=3;shadow=0;html=1;fontColor=#FFFFFF;fontSize=14;" parent="1" vertex="1">
          <mxGeometry x="1233.5" y="1253.51" width="120" height="40" as="geometry" />
        </mxCell>
        <mxCell id="1501" value="Rose" style="rounded=1;fillColor=#f08e81;strokeColor=none;strokeWidth=3;shadow=0;html=1;fontColor=#FFFFFF;fontSize=14;" parent="1" vertex="1">
          <mxGeometry x="1253.5" y="1120" width="120" height="40" as="geometry" />
        </mxCell>
        <mxCell id="1502" value="" style="edgeStyle=none;endArrow=none;strokeWidth=3;strokeColor=#F08E81;html=1;entryX=0.25;entryY=0;entryDx=0;entryDy=0;fontSize=14;" parent="1" source="1356" target="1501" edge="1">
          <mxGeometry x="658.5" y="23.51" width="100" height="100" as="geometry">
            <mxPoint x="658.5" y="123.51" as="sourcePoint" />
            <mxPoint x="758.5" y="23.51" as="targetPoint" />
          </mxGeometry>
        </mxCell>
        <mxCell id="1503" value="" style="edgeStyle=none;endArrow=none;strokeWidth=3;strokeColor=#F08E81;html=1;fontSize=14;" parent="1" source="1356" target="1490" edge="1">
          <mxGeometry x="658.5" y="23.51" width="100" height="100" as="geometry">
            <mxPoint x="658.5" y="123.51" as="sourcePoint" />
            <mxPoint x="758.5" y="23.51" as="targetPoint" />
          </mxGeometry>
        </mxCell>
        <mxCell id="1504" value="" style="edgeStyle=none;endArrow=none;strokeWidth=3;strokeColor=#F08E81;html=1;fontSize=14;" parent="1" source="1356" target="1491" edge="1">
          <mxGeometry x="658.5" y="23.51" width="100" height="100" as="geometry">
            <mxPoint x="658.5" y="123.51" as="sourcePoint" />
            <mxPoint x="758.5" y="23.51" as="targetPoint" />
          </mxGeometry>
        </mxCell>
        <mxCell id="1505" value="" style="edgeStyle=none;endArrow=none;strokeWidth=3;strokeColor=#F08E81;html=1;fontSize=14;" parent="1" source="1356" target="1492" edge="1">
          <mxGeometry x="658.5" y="23.51" width="100" height="100" as="geometry">
            <mxPoint x="658.5" y="123.51" as="sourcePoint" />
            <mxPoint x="758.5" y="23.51" as="targetPoint" />
          </mxGeometry>
        </mxCell>
        <mxCell id="1506" value="" style="edgeStyle=none;endArrow=none;strokeWidth=3;strokeColor=#F08E81;html=1;fontSize=14;" parent="1" source="1356" target="1493" edge="1">
          <mxGeometry x="658.5" y="23.51" width="100" height="100" as="geometry">
            <mxPoint x="658.5" y="123.51" as="sourcePoint" />
            <mxPoint x="758.5" y="23.51" as="targetPoint" />
          </mxGeometry>
        </mxCell>
        <mxCell id="1507" value="" style="edgeStyle=none;endArrow=none;strokeWidth=3;strokeColor=#F08E81;html=1;fontSize=14;" parent="1" source="1356" edge="1">
          <mxGeometry x="658.5" y="23.51" width="100" height="100" as="geometry">
            <mxPoint x="658.5" y="123.51" as="sourcePoint" />
            <mxPoint x="938.5000000000005" y="1182.081428571429" as="targetPoint" />
          </mxGeometry>
        </mxCell>
        <mxCell id="1508" value="" style="edgeStyle=none;endArrow=none;strokeWidth=3;strokeColor=#F08E81;html=1;fontSize=14;" parent="1" source="1356" target="1495" edge="1">
          <mxGeometry x="658.5" y="23.51" width="100" height="100" as="geometry">
            <mxPoint x="658.5" y="123.51" as="sourcePoint" />
            <mxPoint x="758.5" y="23.51" as="targetPoint" />
          </mxGeometry>
        </mxCell>
        <mxCell id="1509" value="" style="edgeStyle=none;endArrow=none;strokeWidth=3;strokeColor=#F08E81;html=1;fontSize=14;" parent="1" source="1356" target="1496" edge="1">
          <mxGeometry x="658.5" y="23.51" width="100" height="100" as="geometry">
            <mxPoint x="658.5" y="123.51" as="sourcePoint" />
            <mxPoint x="758.5" y="23.51" as="targetPoint" />
          </mxGeometry>
        </mxCell>
        <mxCell id="1510" value="" style="edgeStyle=none;endArrow=none;strokeWidth=3;strokeColor=#F08E81;html=1;fontSize=14;" parent="1" source="1356" target="1497" edge="1">
          <mxGeometry x="658.5" y="23.51" width="100" height="100" as="geometry">
            <mxPoint x="658.5" y="123.51" as="sourcePoint" />
            <mxPoint x="758.5" y="23.51" as="targetPoint" />
          </mxGeometry>
        </mxCell>
        <mxCell id="1511" value="" style="edgeStyle=none;endArrow=none;strokeWidth=3;strokeColor=#F08E81;html=1;fontSize=14;" parent="1" source="1356" target="1498" edge="1">
          <mxGeometry x="658.5" y="23.51" width="100" height="100" as="geometry">
            <mxPoint x="658.5" y="123.51" as="sourcePoint" />
            <mxPoint x="758.5" y="23.51" as="targetPoint" />
          </mxGeometry>
        </mxCell>
        <mxCell id="1512" value="" style="edgeStyle=none;endArrow=none;strokeWidth=3;strokeColor=#F08E81;html=1;fontSize=14;" parent="1" source="1356" target="1499" edge="1">
          <mxGeometry x="658.5" y="23.51" width="100" height="100" as="geometry">
            <mxPoint x="658.5" y="123.51" as="sourcePoint" />
            <mxPoint x="758.5" y="23.51" as="targetPoint" />
          </mxGeometry>
        </mxCell>
        <mxCell id="1513" value="" style="edgeStyle=none;endArrow=none;strokeWidth=3;strokeColor=#F08E81;html=1;fontSize=14;" parent="1" source="1356" target="1500" edge="1">
          <mxGeometry x="658.5" y="23.51" width="100" height="100" as="geometry">
            <mxPoint x="658.5" y="123.51" as="sourcePoint" />
            <mxPoint x="758.5" y="23.51" as="targetPoint" />
          </mxGeometry>
        </mxCell>
        <mxCell id="1515" value="&lt;font style=&quot;font-size: 36px&quot;&gt;RaftClient&lt;/font&gt;" style="ellipse;whiteSpace=wrap;html=1;shadow=0;fontFamily=Helvetica;fontSize=14;fontColor=#2F5B7C;align=center;strokeColor=#2F5B7C;strokeWidth=6;fillColor=#FFFFFF;fontStyle=1;gradientColor=none;" parent="1" vertex="1">
          <mxGeometry x="961" y="676.5" width="270" height="270" as="geometry" />
        </mxCell>
        <mxCell id="1516" value="&lt;font style=&quot;font-size: 26px&quot;&gt;Read&lt;/font&gt;" style="ellipse;whiteSpace=wrap;html=1;shadow=0;fontFamily=Helvetica;fontSize=14;fontColor=#FFFFFF;align=center;strokeWidth=3;fillColor=#736ca8;strokeColor=none;" parent="1" vertex="1">
          <mxGeometry x="571" y="746.49" width="192.25" height="122.02" as="geometry" />
        </mxCell>
        <mxCell id="1517" value="GetBlockRequestProto" style="rounded=1;fillColor=#a29dc5;strokeColor=none;strokeWidth=3;shadow=0;html=1;fontColor=#FFFFFF;fontSize=14;" parent="1" vertex="1">
          <mxGeometry x="640" y="660" width="166.5" height="40" as="geometry" />
        </mxCell>
        <mxCell id="1522" value="ReadChunkRequestProto" style="rounded=1;fillColor=#a29dc5;strokeColor=none;strokeWidth=3;shadow=0;html=1;fontColor=#FFFFFF;fontSize=14;" parent="1" vertex="1">
          <mxGeometry x="380" y="670" width="171.5" height="40" as="geometry" />
        </mxCell>
        <mxCell id="1527" value="ReadChunkResponseProto" style="rounded=1;fillColor=#a29dc5;strokeColor=none;strokeWidth=3;shadow=0;html=1;fontColor=#FFFFFF;fontSize=14;" parent="1" vertex="1">
          <mxGeometry x="680" y="910" width="190" height="40" as="geometry" />
        </mxCell>
        <mxCell id="1528" value="" style="edgeStyle=none;endArrow=none;strokeWidth=3;strokeColor=#A29DC5;html=1;fontSize=14;" parent="1" source="1516" target="1517" edge="1">
          <mxGeometry x="-1236.5" y="-275" width="100" height="100" as="geometry">
            <mxPoint x="-1236.5" y="-175" as="sourcePoint" />
            <mxPoint x="-1136.5" y="-275" as="targetPoint" />
          </mxGeometry>
        </mxCell>
        <mxCell id="1529" value="GetBlockResponseProto" style="rounded=1;fillColor=#a29dc5;strokeColor=none;strokeWidth=3;shadow=0;html=1;fontColor=#FFFFFF;fontSize=14;" parent="1" vertex="1">
          <mxGeometry x="401" y="897.49" width="170" height="42.51" as="geometry" />
        </mxCell>
        <mxCell id="1534" value="" style="edgeStyle=none;endArrow=none;strokeWidth=3;strokeColor=#A29DC5;html=1;fontSize=14;" parent="1" source="1516" target="1522" edge="1">
          <mxGeometry x="-1236.5" y="-275" width="100" height="100" as="geometry">
            <mxPoint x="-1236.5" y="-175" as="sourcePoint" />
            <mxPoint x="-1136.5" y="-275" as="targetPoint" />
          </mxGeometry>
        </mxCell>
        <mxCell id="1539" value="" style="edgeStyle=none;endArrow=none;strokeWidth=3;strokeColor=#A29DC5;html=1;fontSize=14;" parent="1" source="1516" target="1527" edge="1">
          <mxGeometry x="-1236.5" y="-275" width="100" height="100" as="geometry">
            <mxPoint x="-1236.5" y="-175" as="sourcePoint" />
            <mxPoint x="-1136.5" y="-275" as="targetPoint" />
          </mxGeometry>
        </mxCell>
        <mxCell id="1540" value="" style="edgeStyle=none;endArrow=none;strokeWidth=3;strokeColor=#A29DC5;html=1;fontSize=14;" parent="1" source="1516" target="1529" edge="1">
          <mxGeometry x="-1236.5" y="-275" width="100" height="100" as="geometry">
            <mxPoint x="-1236.5" y="-175" as="sourcePoint" />
            <mxPoint x="-1136.5" y="-275" as="targetPoint" />
          </mxGeometry>
        </mxCell>
        <mxCell id="1542" style="edgeStyle=none;rounded=0;html=1;exitX=0.5;exitY=1;endArrow=none;endFill=0;jettySize=auto;orthogonalLoop=1;strokeColor=#736CA8;strokeWidth=2;fillColor=#64bbe2;fontSize=14;fontColor=#23445D;" parent="1" source="1529" target="1529" edge="1">
          <mxGeometry relative="1" as="geometry" />
        </mxCell>
        <mxCell id="U10Gyy9e64tMJWb6tkTp-1542" value="ChecksumData" style="rounded=1;fillColor=#64BBE2;strokeColor=none;strokeWidth=3;shadow=0;html=1;fontColor=#FFFFFF;fontSize=14;" vertex="1" parent="1">
          <mxGeometry x="1608.5" y="900" width="120" height="40" as="geometry" />
        </mxCell>
      </root>
    </mxGraphModel>
  </diagram>
</mxfile>
